{
	"asset":{
		"generator":"Khronos glTF Blender I/O v5.0.21",
		"version":"2.0"
	},
	"extensionsUsed":[
		"KHR_materials_specular"
	],
	"scene":0,
	"scenes":[
		{
			"name":"Scene",
			"nodes":[
				0,
				1,
				2,
				41
			]
		}
	],
	"nodes":[
		{
			"name":"obj_0",
			"rotation":[
				0.7071068286895752,
				0,
				0,
				0.7071068286895752
			],
			"scale":[
				0.009999999776482582,
				0.009999999776482582,
				0.009999999776482582
			]
		},
		{
			"name":"obj_1",
			"rotation":[
				0.7071068286895752,
				0,
				0,
				0.7071068286895752
			],
			"scale":[
				0.009999999776482582,
				0.009999999776482582,
				0.009999999776482582
			]
		},
		{
			"name":"obj_2",
			"rotation":[
				0.7071068286895752,
				0,
				0,
				0.7071068286895752
			],
			"scale":[
				0.009999999776482582,
				0.009999999776482582,
				0.009999999776482582
			]
		},
		{
			"name":"mixamorig:HeadTop_End",
			"rotation":[
				2.8519339930212196e-16,
				-2.057608412063647e-15,
				1.9391944765869166e-15,
				1
			],
			"scale":[
				1,
				0.9999999403953552,
				0.9999999403953552
			],
			"translation":[
				-1.6029821381380316e-06,
				39.65813446044922,
				9.652095794677734
			]
		},
		{
			"children":[
				3
			],
			"name":"mixamorig:Head",
			"rotation":[
				2.8519339930212196e-16,
				-2.057608412063647e-15,
				1.9391944765869166e-15,
				1
			],
			"scale":[
				1,
				0.9999999403953552,
				0.9999999403953552
			],
			"translation":[
				-9.431774117274472e-08,
				10.02006721496582,
				2.438706874847412
			]
		},
		{
			"children":[
				4
			],
			"name":"mixamorig:Neck",
			"rotation":[
				0.10355371981859207,
				-1.4388112923313656e-08,
				6.024470700083384e-09,
				0.9946238994598389
			],
			"scale":[
				1,
				0.9999998807907104,
				0.9999998807907104
			],
			"translation":[
				1.751116997183999e-06,
				7.031633377075195,
				-2.7398800739319995e-06
			]
		},
		{
			"name":"mixamorig:LeftHandIndex4",
			"rotation":[
				-3.818422555923462e-08,
				-4.0046870708465576e-08,
				8.381904059717726e-09,
				1
			],
			"scale":[
				1,
				0.9999998807907104,
				1
			],
			"translation":[
				-0.047924041748046875,
				0.02835404872894287,
				-0.021984338760375977
			]
		},
		{
			"children":[
				6
			],
			"name":"mixamorig:LeftHandIndex3",
			"rotation":[
				3.4086406230926514e-05,
				-1.5101395547389984e-06,
				-2.7404166758060455e-06,
				1
			],
			"scale":[
				1,
				0.9999998807907104,
				1
			],
			"translation":[
				-0.1747429370880127,
				0.37065285444259644,
				-0.16050946712493896
			]
		},
		{
			"children":[
				7
			],
			"name":"mixamorig:LeftHandIndex2",
			"rotation":[
				4.071742296218872e-06,
				-2.3311004042625427e-06,
				-7.2731636464595795e-06,
				1
			],
			"translation":[
				-7.152557373046875e-07,
				0.8144620656967163,
				-1.9073486328125e-06
			]
		},
		{
			"children":[
				8
			],
			"name":"mixamorig:LeftHandIndex1",
			"rotation":[
				0.01702120713889599,
				0.9483997225761414,
				-0.31237488985061646,
				0.051674772053956985
			],
			"scale":[
				1,
				0.9999997019767761,
				1.0000001192092896
			],
			"translation":[
				7.152557373046875e-07,
				5.413225173950195,
				-2.682209014892578e-06
			]
		},
		{
			"children":[
				9
			],
			"name":"mixamorig:LeftHand",
			"rotation":[
				0.013811953365802765,
				-0.0002053290227195248,
				-0.014869505539536476,
				0.9997940063476562
			],
			"scale":[
				1.0000001192092896,
				1,
				1
			],
			"translation":[
				4.6193599700927734e-07,
				19.067588806152344,
				1.6093254089355469e-06
			]
		},
		{
			"children":[
				10
			],
			"name":"mixamorig:LeftForeArm",
			"rotation":[
				-0.022621238604187965,
				-0.0005187749629840255,
				0.022919846698641777,
				0.999481201171875
			],
			"scale":[
				1,
				0.9999998807907104,
				0.9999999403953552
			],
			"translation":[
				-4.76837158203125e-07,
				12.125090599060059,
				9.47713851928711e-06
			]
		},
		{
			"children":[
				11
			],
			"name":"mixamorig:LeftArm",
			"rotation":[
				-0.11260562390089035,
				-0.0030373558402061462,
				0.026792537420988083,
				0.9932738542556763
			],
			"scale":[
				0.9999999403953552,
				0.9999998807907104,
				0.9999999403953552
			],
			"translation":[
				-2.384185791015625e-07,
				6.649144172668457,
				3.635883331298828e-06
			]
		},
		{
			"children":[
				12
			],
			"name":"mixamorig:LeftShoulder",
			"rotation":[
				0.5332044959068298,
				0.44845765829086304,
				-0.590519905090332,
				0.4072652757167816
			],
			"scale":[
				1.000000238418579,
				1.0000003576278687,
				1
			],
			"translation":[
				2.9996395111083984,
				6.144768238067627,
				-0.31745585799217224
			]
		},
		{
			"name":"mixamorig:RightHandIndex4",
			"rotation":[
				1.2863893061876297e-07,
				-6.868503987789154e-09,
				2.1420420992512845e-08,
				1
			],
			"scale":[
				0.9999999403953552,
				0.9999999403953552,
				1
			],
			"translation":[
				-0.03850719332695007,
				0.0607336089015007,
				-0.05765068531036377
			]
		},
		{
			"children":[
				14
			],
			"name":"mixamorig:RightHandIndex3",
			"rotation":[
				3.0774394872423727e-06,
				-2.185930952691706e-06,
				4.880130859419296e-07,
				1
			],
			"scale":[
				0.9999999403953552,
				0.9999999403953552,
				0.9999998211860657
			],
			"translation":[
				-0.1953795850276947,
				1.0219999551773071,
				0.4387919306755066
			]
		},
		{
			"children":[
				15
			],
			"name":"mixamorig:RightHandIndex2",
			"rotation":[
				4.066387191414833e-07,
				-2.9186483061494073e-06,
				4.6100464601295243e-07,
				1
			],
			"scale":[
				1.0000001192092896,
				1,
				1
			],
			"translation":[
				1.6987323760986328e-06,
				1.0678483247756958,
				-1.9669532775878906e-06
			]
		},
		{
			"children":[
				16
			],
			"name":"mixamorig:RightHandIndex1",
			"rotation":[
				0.1602962762117386,
				0.0027817438822239637,
				0.017229830846190453,
				0.9869146347045898
			],
			"scale":[
				0.9999998807907104,
				0.9999998807907104,
				1
			],
			"translation":[
				-1.0728836059570312e-06,
				4.547078609466553,
				-3.337860107421875e-06
			]
		},
		{
			"children":[
				17
			],
			"name":"mixamorig:RightHand",
			"rotation":[
				-0.01736612059175968,
				0.00021964486222714186,
				-0.011818072758615017,
				0.9997793436050415
			],
			"scale":[
				1,
				1.0000001192092896,
				1
			],
			"translation":[
				2.086162567138672e-07,
				19.068439483642578,
				3.2186508178710938e-06
			]
		},
		{
			"children":[
				18
			],
			"name":"mixamorig:RightForeArm",
			"rotation":[
				-0.025493193417787552,
				0.00027954558026976883,
				-0.01093955896794796,
				0.9996151328086853
			],
			"scale":[
				0.9999998211860657,
				1,
				0.9999998211860657
			],
			"translation":[
				3.3266842365264893e-06,
				12.119332313537598,
				1.2367963790893555e-06
			]
		},
		{
			"children":[
				19
			],
			"name":"mixamorig:RightArm",
			"rotation":[
				-0.11939650774002075,
				-0.0006106330547481775,
				0.0051069133915007114,
				0.9928333759307861
			],
			"scale":[
				0.9999998211860657,
				1,
				1.0000001192092896
			],
			"translation":[
				6.258487701416016e-07,
				6.649145603179932,
				-5.960464477539062e-07
			]
		},
		{
			"children":[
				20
			],
			"name":"mixamorig:RightShoulder",
			"rotation":[
				0.5599790811538696,
				-0.42796042561531067,
				0.5721645951271057,
				0.41940543055534363
			],
			"scale":[
				1.0000003576278687,
				1.0000003576278687,
				0.9999999403953552
			],
			"translation":[
				-2.9996337890625,
				6.092051982879639,
				-0.06703581660985947
			]
		},
		{
			"children":[
				5,
				13,
				21
			],
			"name":"mixamorig:Spine2",
			"rotation":[
				6.705523958316917e-08,
				-6.658956408500671e-08,
				5.55111597015873e-15,
				1
			],
			"scale":[
				1,
				0.9999998807907104,
				0.9999998807907104
			],
			"translation":[
				8.178495818356168e-07,
				6.250349521636963,
				-8.688521120348014e-07
			]
		},
		{
			"children":[
				22
			],
			"name":"mixamorig:Spine1",
			"rotation":[
				8.195637946073475e-08,
				8.614733815193176e-08,
				8.881784197001252e-15,
				1
			],
			"scale":[
				1,
				1,
				1.0000001192092896
			],
			"translation":[
				1.2517068626038963e-06,
				5.469057083129883,
				2.3476479782402748e-07
			]
		},
		{
			"children":[
				23
			],
			"name":"mixamorig:Spine",
			"rotation":[
				-0.10355386137962341,
				-5.0645136973059834e-09,
				-3.999196529491655e-09,
				0.9946238994598389
			],
			"scale":[
				1,
				1.0000001192092896,
				1
			],
			"translation":[
				7.788935363350902e-08,
				4.587224960327148,
				-0.9656515717506409
			]
		},
		{
			"name":"mixamorig:LeftToe_End",
			"rotation":[
				4.190952473948073e-09,
				-9.094947017729282e-08,
				-2.87545844912529e-08,
				1
			],
			"scale":[
				1,
				1,
				0.9999999403953552
			],
			"translation":[
				-8.89413058757782e-07,
				0.13054244220256805,
				4.9602240324020386e-06
			]
		},
		{
			"children":[
				25
			],
			"name":"mixamorig:LeftToeBase",
			"rotation":[
				0.3917921185493469,
				0.5614525079727173,
				-0.341642290353775,
				0.6438559889793396
			],
			"scale":[
				1,
				1,
				1.0000001192092896
			],
			"translation":[
				-2.185930497944355e-06,
				0.0991545170545578,
				5.811452865600586e-07
			]
		},
		{
			"children":[
				26
			],
			"name":"mixamorig:LeftFoot",
			"rotation":[
				0.4566609263420105,
				-0.47703835368156433,
				0.3208649456501007,
				0.6789262890815735
			],
			"scale":[
				1,
				1,
				1.0000001192092896
			],
			"translation":[
				4.034449375467375e-06,
				20.398984909057617,
				2.603628672659397e-07
			]
		},
		{
			"children":[
				27
			],
			"name":"mixamorig:LeftLeg",
			"rotation":[
				0.006385740824043751,
				6.679693615296856e-05,
				0.010453897528350353,
				0.9999249577522278
			],
			"scale":[
				0.9999998211860657,
				0.9999998807907104,
				0.9999998211860657
			],
			"translation":[
				-2.661137841641903e-06,
				21.38052749633789,
				-8.415099728154019e-08
			]
		},
		{
			"children":[
				28
			],
			"name":"mixamorig:LeftUpLeg",
			"rotation":[
				4.3827920308103785e-05,
				-0.003552485955879092,
				0.9999175667762756,
				0.012337388470768929
			],
			"scale":[
				1.000000238418579,
				1.000000238418579,
				1.0000001192092896
			],
			"translation":[
				6.562170505523682,
				-2.5534989833831787,
				0.2589050233364105
			]
		},
		{
			"name":"mixamorig:RightToe_End",
			"rotation":[
				1.955777406692505e-08,
				2.569868229329586e-08,
				3.213062882423401e-08,
				1
			],
			"translation":[
				-4.116445779800415e-07,
				0.12605507671833038,
				-2.002343535423279e-06
			]
		},
		{
			"children":[
				30
			],
			"name":"mixamorig:RightToeBase",
			"rotation":[
				0.26474884152412415,
				-0.5639361143112183,
				0.19723759591579437,
				0.7569553852081299
			],
			"scale":[
				1.0000001192092896,
				0.9999999403953552,
				1.0000001192092896
			],
			"translation":[
				-4.818430170416832e-07,
				0.1269710212945938,
				-7.562339305877686e-07
			]
		},
		{
			"children":[
				31
			],
			"name":"mixamorig:RightFoot",
			"rotation":[
				0.5479010939598083,
				0.3105042278766632,
				-0.22921991348266602,
				0.7421925067901611
			],
			"scale":[
				1.0000001192092896,
				1,
				1
			],
			"translation":[
				-5.4060806178313214e-06,
				20.398714065551758,
				-3.159948391839862e-07
			]
		},
		{
			"children":[
				32
			],
			"name":"mixamorig:RightLeg",
			"rotation":[
				0.0010881178313866258,
				-1.1261280633334536e-05,
				-0.010454497300088406,
				0.9999447464942932
			],
			"scale":[
				0.9999998807907104,
				1,
				0.9999998807907104
			],
			"translation":[
				3.1464483072340954e-06,
				21.379989624023438,
				-1.9411243101785658e-07
			]
		},
		{
			"children":[
				33
			],
			"name":"mixamorig:RightUpLeg",
			"rotation":[
				-3.5672371723194374e-07,
				-2.75342845270643e-05,
				-0.9999238848686218,
				0.012337780557572842
			],
			"scale":[
				1.0000001192092896,
				1.0000001192092896,
				1
			],
			"translation":[
				-6.562169551849365,
				-2.5534961223602295,
				0.14535021781921387
			]
		},
		{
			"children":[
				24,
				29,
				34
			],
			"name":"mixamorig:Hips",
			"rotation":[
				0,
				0.7071067690849304,
				-2.5121481026586963e-15,
				0.7071067690849304
			],
			"scale":[
				1,
				0.9999998807907104,
				1
			],
			"translation":[
				1.7948182821273804,
				44.428226470947266,
				-22.999998092651367
			]
		},
		{
			"mesh":0,
			"name":"group_0_16448250",
			"skin":0
		},
		{
			"mesh":1,
			"name":"group_0_2829873",
			"skin":0
		},
		{
			"mesh":2,
			"name":"group_0_8273816",
			"skin":0
		},
		{
			"mesh":3,
			"name":"group_1_16448250",
			"skin":0
		},
		{
			"mesh":4,
			"name":"group_2_16448250",
			"skin":0
		},
		{
			"children":[
				36,
				37,
				38,
				39,
				40,
				35
			],
			"name":"Armature",
			"rotation":[
				0.7071068286895752,
				0,
				0,
				0.7071068286895752
			],
			"scale":[
				0.009999999776482582,
				0.009999999776482582,
				0.009999999776482582
			]
		}
	],
	"animations":[
		{
			"channels":[
				{
					"sampler":0,
					"target":{
						"node":35,
						"path":"translation"
					}
				},
				{
					"sampler":1,
					"target":{
						"node":35,
						"path":"rotation"
					}
				},
				{
					"sampler":2,
					"target":{
						"node":35,
						"path":"scale"
					}
				},
				{
					"sampler":3,
					"target":{
						"node":24,
						"path":"translation"
					}
				},
				{
					"sampler":4,
					"target":{
						"node":24,
						"path":"rotation"
					}
				},
				{
					"sampler":5,
					"target":{
						"node":24,
						"path":"scale"
					}
				},
				{
					"sampler":6,
					"target":{
						"node":23,
						"path":"translation"
					}
				},
				{
					"sampler":7,
					"target":{
						"node":23,
						"path":"rotation"
					}
				},
				{
					"sampler":8,
					"target":{
						"node":23,
						"path":"scale"
					}
				},
				{
					"sampler":9,
					"target":{
						"node":22,
						"path":"translation"
					}
				},
				{
					"sampler":10,
					"target":{
						"node":22,
						"path":"rotation"
					}
				},
				{
					"sampler":11,
					"target":{
						"node":22,
						"path":"scale"
					}
				},
				{
					"sampler":12,
					"target":{
						"node":5,
						"path":"translation"
					}
				},
				{
					"sampler":13,
					"target":{
						"node":5,
						"path":"rotation"
					}
				},
				{
					"sampler":14,
					"target":{
						"node":5,
						"path":"scale"
					}
				},
				{
					"sampler":15,
					"target":{
						"node":4,
						"path":"translation"
					}
				},
				{
					"sampler":16,
					"target":{
						"node":4,
						"path":"rotation"
					}
				},
				{
					"sampler":17,
					"target":{
						"node":4,
						"path":"scale"
					}
				},
				{
					"sampler":18,
					"target":{
						"node":3,
						"path":"translation"
					}
				},
				{
					"sampler":19,
					"target":{
						"node":3,
						"path":"rotation"
					}
				},
				{
					"sampler":20,
					"target":{
						"node":3,
						"path":"scale"
					}
				},
				{
					"sampler":21,
					"target":{
						"node":13,
						"path":"translation"
					}
				},
				{
					"sampler":22,
					"target":{
						"node":13,
						"path":"rotation"
					}
				},
				{
					"sampler":23,
					"target":{
						"node":13,
						"path":"scale"
					}
				},
				{
					"sampler":24,
					"target":{
						"node":12,
						"path":"translation"
					}
				},
				{
					"sampler":25,
					"target":{
						"node":12,
						"path":"rotation"
					}
				},
				{
					"sampler":26,
					"target":{
						"node":12,
						"path":"scale"
					}
				},
				{
					"sampler":27,
					"target":{
						"node":11,
						"path":"translation"
					}
				},
				{
					"sampler":28,
					"target":{
						"node":11,
						"path":"rotation"
					}
				},
				{
					"sampler":29,
					"target":{
						"node":11,
						"path":"scale"
					}
				},
				{
					"sampler":30,
					"target":{
						"node":10,
						"path":"translation"
					}
				},
				{
					"sampler":31,
					"target":{
						"node":10,
						"path":"rotation"
					}
				},
				{
					"sampler":32,
					"target":{
						"node":10,
						"path":"scale"
					}
				},
				{
					"sampler":33,
					"target":{
						"node":9,
						"path":"translation"
					}
				},
				{
					"sampler":34,
					"target":{
						"node":9,
						"path":"rotation"
					}
				},
				{
					"sampler":35,
					"target":{
						"node":9,
						"path":"scale"
					}
				},
				{
					"sampler":36,
					"target":{
						"node":8,
						"path":"translation"
					}
				},
				{
					"sampler":37,
					"target":{
						"node":8,
						"path":"rotation"
					}
				},
				{
					"sampler":38,
					"target":{
						"node":8,
						"path":"scale"
					}
				},
				{
					"sampler":39,
					"target":{
						"node":7,
						"path":"translation"
					}
				},
				{
					"sampler":40,
					"target":{
						"node":7,
						"path":"rotation"
					}
				},
				{
					"sampler":41,
					"target":{
						"node":7,
						"path":"scale"
					}
				},
				{
					"sampler":42,
					"target":{
						"node":6,
						"path":"translation"
					}
				},
				{
					"sampler":43,
					"target":{
						"node":6,
						"path":"rotation"
					}
				},
				{
					"sampler":44,
					"target":{
						"node":6,
						"path":"scale"
					}
				},
				{
					"sampler":45,
					"target":{
						"node":21,
						"path":"translation"
					}
				},
				{
					"sampler":46,
					"target":{
						"node":21,
						"path":"rotation"
					}
				},
				{
					"sampler":47,
					"target":{
						"node":21,
						"path":"scale"
					}
				},
				{
					"sampler":48,
					"target":{
						"node":20,
						"path":"translation"
					}
				},
				{
					"sampler":49,
					"target":{
						"node":20,
						"path":"rotation"
					}
				},
				{
					"sampler":50,
					"target":{
						"node":20,
						"path":"scale"
					}
				},
				{
					"sampler":51,
					"target":{
						"node":19,
						"path":"translation"
					}
				},
				{
					"sampler":52,
					"target":{
						"node":19,
						"path":"rotation"
					}
				},
				{
					"sampler":53,
					"target":{
						"node":19,
						"path":"scale"
					}
				},
				{
					"sampler":54,
					"target":{
						"node":18,
						"path":"translation"
					}
				},
				{
					"sampler":55,
					"target":{
						"node":18,
						"path":"rotation"
					}
				},
				{
					"sampler":56,
					"target":{
						"node":18,
						"path":"scale"
					}
				},
				{
					"sampler":57,
					"target":{
						"node":17,
						"path":"translation"
					}
				},
				{
					"sampler":58,
					"target":{
						"node":17,
						"path":"rotation"
					}
				},
				{
					"sampler":59,
					"target":{
						"node":17,
						"path":"scale"
					}
				},
				{
					"sampler":60,
					"target":{
						"node":16,
						"path":"translation"
					}
				},
				{
					"sampler":61,
					"target":{
						"node":16,
						"path":"rotation"
					}
				},
				{
					"sampler":62,
					"target":{
						"node":16,
						"path":"scale"
					}
				},
				{
					"sampler":63,
					"target":{
						"node":15,
						"path":"translation"
					}
				},
				{
					"sampler":64,
					"target":{
						"node":15,
						"path":"rotation"
					}
				},
				{
					"sampler":65,
					"target":{
						"node":15,
						"path":"scale"
					}
				},
				{
					"sampler":66,
					"target":{
						"node":14,
						"path":"translation"
					}
				},
				{
					"sampler":67,
					"target":{
						"node":14,
						"path":"rotation"
					}
				},
				{
					"sampler":68,
					"target":{
						"node":14,
						"path":"scale"
					}
				},
				{
					"sampler":69,
					"target":{
						"node":29,
						"path":"translation"
					}
				},
				{
					"sampler":70,
					"target":{
						"node":29,
						"path":"rotation"
					}
				},
				{
					"sampler":71,
					"target":{
						"node":29,
						"path":"scale"
					}
				},
				{
					"sampler":72,
					"target":{
						"node":28,
						"path":"translation"
					}
				},
				{
					"sampler":73,
					"target":{
						"node":28,
						"path":"rotation"
					}
				},
				{
					"sampler":74,
					"target":{
						"node":28,
						"path":"scale"
					}
				},
				{
					"sampler":75,
					"target":{
						"node":27,
						"path":"translation"
					}
				},
				{
					"sampler":76,
					"target":{
						"node":27,
						"path":"rotation"
					}
				},
				{
					"sampler":77,
					"target":{
						"node":27,
						"path":"scale"
					}
				},
				{
					"sampler":78,
					"target":{
						"node":26,
						"path":"translation"
					}
				},
				{
					"sampler":79,
					"target":{
						"node":26,
						"path":"rotation"
					}
				},
				{
					"sampler":80,
					"target":{
						"node":26,
						"path":"scale"
					}
				},
				{
					"sampler":81,
					"target":{
						"node":25,
						"path":"translation"
					}
				},
				{
					"sampler":82,
					"target":{
						"node":25,
						"path":"rotation"
					}
				},
				{
					"sampler":83,
					"target":{
						"node":25,
						"path":"scale"
					}
				},
				{
					"sampler":84,
					"target":{
						"node":34,
						"path":"translation"
					}
				},
				{
					"sampler":85,
					"target":{
						"node":34,
						"path":"rotation"
					}
				},
				{
					"sampler":86,
					"target":{
						"node":34,
						"path":"scale"
					}
				},
				{
					"sampler":87,
					"target":{
						"node":33,
						"path":"translation"
					}
				},
				{
					"sampler":88,
					"target":{
						"node":33,
						"path":"rotation"
					}
				},
				{
					"sampler":89,
					"target":{
						"node":33,
						"path":"scale"
					}
				},
				{
					"sampler":90,
					"target":{
						"node":32,
						"path":"translation"
					}
				},
				{
					"sampler":91,
					"target":{
						"node":32,
						"path":"rotation"
					}
				},
				{
					"sampler":92,
					"target":{
						"node":32,
						"path":"scale"
					}
				},
				{
					"sampler":93,
					"target":{
						"node":31,
						"path":"translation"
					}
				},
				{
					"sampler":94,
					"target":{
						"node":31,
						"path":"rotation"
					}
				},
				{
					"sampler":95,
					"target":{
						"node":31,
						"path":"scale"
					}
				},
				{
					"sampler":96,
					"target":{
						"node":30,
						"path":"translation"
					}
				},
				{
					"sampler":97,
					"target":{
						"node":30,
						"path":"rotation"
					}
				},
				{
					"sampler":98,
					"target":{
						"node":30,
						"path":"scale"
					}
				}
			],
			"name":"Armature|mixamo.com|Layer0",
			"samplers":[
				{
					"input":25,
					"interpolation":"LINEAR",
					"output":26
				},
				{
					"input":25,
					"interpolation":"LINEAR",
					"output":27
				},
				{
					"input":28,
					"interpolation":"STEP",
					"output":29
				},
				{
					"input":28,
					"interpolation":"LINEAR",
					"output":30
				},
				{
					"input":25,
					"interpolation":"LINEAR",
					"output":31
				},
				{
					"input":28,
					"interpolation":"STEP",
					"output":32
				},
				{
					"input":28,
					"interpolation":"LINEAR",
					"output":33
				},
				{
					"input":25,
					"interpolation":"LINEAR",
					"output":34
				},
				{
					"input":28,
					"interpolation":"LINEAR",
					"output":35
				},
				{
					"input":28,
					"interpolation":"LINEAR",
					"output":36
				},
				{
					"input":25,
					"interpolation":"LINEAR",
					"output":37
				},
				{
					"input":28,
					"interpolation":"STEP",
					"output":38
				},
				{
					"input":28,
					"interpolation":"LINEAR",
					"output":39
				},
				{
					"input":25,
					"interpolation":"LINEAR",
					"output":40
				},
				{
					"input":28,
					"interpolation":"LINEAR",
					"output":41
				},
				{
					"input":28,
					"interpolation":"LINEAR",
					"output":42
				},
				{
					"input":25,
					"interpolation":"LINEAR",
					"output":43
				},
				{
					"input":28,
					"interpolation":"LINEAR",
					"output":44
				},
				{
					"input":28,
					"interpolation":"STEP",
					"output":45
				},
				{
					"input":28,
					"interpolation":"STEP",
					"output":46
				},
				{
					"input":28,
					"interpolation":"STEP",
					"output":47
				},
				{
					"input":28,
					"interpolation":"LINEAR",
					"output":48
				},
				{
					"input":25,
					"interpolation":"LINEAR",
					"output":49
				},
				{
					"input":28,
					"interpolation":"LINEAR",
					"output":50
				},
				{
					"input":28,
					"interpolation":"LINEAR",
					"output":51
				},
				{
					"input":25,
					"interpolation":"LINEAR",
					"output":52
				},
				{
					"input":28,
					"interpolation":"LINEAR",
					"output":53
				},
				{
					"input":28,
					"interpolation":"LINEAR",
					"output":54
				},
				{
					"input":25,
					"interpolation":"LINEAR",
					"output":55
				},
				{
					"input":28,
					"interpolation":"LINEAR",
					"output":56
				},
				{
					"input":28,
					"interpolation":"LINEAR",
					"output":57
				},
				{
					"input":28,
					"interpolation":"STEP",
					"output":58
				},
				{
					"input":28,
					"interpolation":"LINEAR",
					"output":59
				},
				{
					"input":28,
					"interpolation":"LINEAR",
					"output":60
				},
				{
					"input":25,
					"interpolation":"LINEAR",
					"output":61
				},
				{
					"input":28,
					"interpolation":"STEP",
					"output":62
				},
				{
					"input":28,
					"interpolation":"LINEAR",
					"output":63
				},
				{
					"input":25,
					"interpolation":"LINEAR",
					"output":64
				},
				{
					"input":28,
					"interpolation":"LINEAR",
					"output":65
				},
				{
					"input":28,
					"interpolation":"LINEAR",
					"output":66
				},
				{
					"input":25,
					"interpolation":"LINEAR",
					"output":67
				},
				{
					"input":28,
					"interpolation":"LINEAR",
					"output":68
				},
				{
					"input":28,
					"interpolation":"STEP",
					"output":69
				},
				{
					"input":28,
					"interpolation":"STEP",
					"output":70
				},
				{
					"input":28,
					"interpolation":"STEP",
					"output":71
				},
				{
					"input":28,
					"interpolation":"LINEAR",
					"output":72
				},
				{
					"input":25,
					"interpolation":"LINEAR",
					"output":73
				},
				{
					"input":28,
					"interpolation":"LINEAR",
					"output":74
				},
				{
					"input":28,
					"interpolation":"LINEAR",
					"output":75
				},
				{
					"input":25,
					"interpolation":"LINEAR",
					"output":76
				},
				{
					"input":28,
					"interpolation":"LINEAR",
					"output":77
				},
				{
					"input":28,
					"interpolation":"LINEAR",
					"output":78
				},
				{
					"input":25,
					"interpolation":"LINEAR",
					"output":79
				},
				{
					"input":28,
					"interpolation":"LINEAR",
					"output":80
				},
				{
					"input":28,
					"interpolation":"LINEAR",
					"output":81
				},
				{
					"input":25,
					"interpolation":"LINEAR",
					"output":82
				},
				{
					"input":28,
					"interpolation":"LINEAR",
					"output":83
				},
				{
					"input":28,
					"interpolation":"LINEAR",
					"output":84
				},
				{
					"input":25,
					"interpolation":"LINEAR",
					"output":85
				},
				{
					"input":28,
					"interpolation":"STEP",
					"output":86
				},
				{
					"input":28,
					"interpolation":"LINEAR",
					"output":87
				},
				{
					"input":25,
					"interpolation":"LINEAR",
					"output":88
				},
				{
					"input":28,
					"interpolation":"LINEAR",
					"output":89
				},
				{
					"input":28,
					"interpolation":"LINEAR",
					"output":90
				},
				{
					"input":25,
					"interpolation":"LINEAR",
					"output":91
				},
				{
					"input":28,
					"interpolation":"STEP",
					"output":92
				},
				{
					"input":28,
					"interpolation":"STEP",
					"output":93
				},
				{
					"input":28,
					"interpolation":"STEP",
					"output":94
				},
				{
					"input":28,
					"interpolation":"STEP",
					"output":95
				},
				{
					"input":28,
					"interpolation":"LINEAR",
					"output":96
				},
				{
					"input":25,
					"interpolation":"LINEAR",
					"output":97
				},
				{
					"input":28,
					"interpolation":"STEP",
					"output":98
				},
				{
					"input":28,
					"interpolation":"LINEAR",
					"output":99
				},
				{
					"input":25,
					"interpolation":"LINEAR",
					"output":100
				},
				{
					"input":28,
					"interpolation":"LINEAR",
					"output":101
				},
				{
					"input":28,
					"interpolation":"LINEAR",
					"output":102
				},
				{
					"input":25,
					"interpolation":"LINEAR",
					"output":103
				},
				{
					"input":28,
					"interpolation":"STEP",
					"output":104
				},
				{
					"input":28,
					"interpolation":"LINEAR",
					"output":105
				},
				{
					"input":25,
					"interpolation":"LINEAR",
					"output":106
				},
				{
					"input":28,
					"interpolation":"STEP",
					"output":107
				},
				{
					"input":28,
					"interpolation":"STEP",
					"output":108
				},
				{
					"input":28,
					"interpolation":"STEP",
					"output":109
				},
				{
					"input":28,
					"interpolation":"STEP",
					"output":110
				},
				{
					"input":28,
					"interpolation":"LINEAR",
					"output":111
				},
				{
					"input":25,
					"interpolation":"LINEAR",
					"output":112
				},
				{
					"input":28,
					"interpolation":"LINEAR",
					"output":113
				},
				{
					"input":28,
					"interpolation":"LINEAR",
					"output":114
				},
				{
					"input":25,
					"interpolation":"LINEAR",
					"output":115
				},
				{
					"input":28,
					"interpolation":"STEP",
					"output":116
				},
				{
					"input":28,
					"interpolation":"LINEAR",
					"output":117
				},
				{
					"input":25,
					"interpolation":"LINEAR",
					"output":118
				},
				{
					"input":28,
					"interpolation":"LINEAR",
					"output":119
				},
				{
					"input":28,
					"interpolation":"LINEAR",
					"output":120
				},
				{
					"input":25,
					"interpolation":"LINEAR",
					"output":121
				},
				{
					"input":28,
					"interpolation":"STEP",
					"output":122
				},
				{
					"input":28,
					"interpolation":"STEP",
					"output":123
				},
				{
					"input":28,
					"interpolation":"STEP",
					"output":124
				},
				{
					"input":28,
					"interpolation":"STEP",
					"output":125
				}
			]
		}
	],
	"materials":[
		{
			"doubleSided":true,
			"extensions":{
				"KHR_materials_specular":{
					"specularFactor":0
				}
			},
			"name":"color_16448250mat",
			"pbrMetallicRoughness":{
				"baseColorFactor":[
					0.9803921580314636,
					0.9803921580314636,
					0.9803921580314636,
					1
				],
				"roughnessFactor":0.5527864098548889
			}
		},
		{
			"doubleSided":true,
			"extensions":{
				"KHR_materials_specular":{
					"specularFactor":0
				}
			},
			"name":"color_2829873mat",
			"pbrMetallicRoughness":{
				"baseColorFactor":[
					0.16862745583057404,
					0.18039216101169586,
					0.1921568661928177,
					1
				],
				"roughnessFactor":0.5527864098548889
			}
		},
		{
			"doubleSided":true,
			"extensions":{
				"KHR_materials_specular":{
					"specularFactor":0
				}
			},
			"name":"color_8273816mat",
			"pbrMetallicRoughness":{
				"baseColorFactor":[
					0.4941176474094391,
					0.24705882370471954,
					0.5960784554481506,
					1
				],
				"roughnessFactor":0.5527864098548889
			}
		}
	],
	"meshes":[
		{
			"name":"group_0_16448250mesh",
			"primitives":[
				{
					"attributes":{
						"POSITION":0,
						"NORMAL":1,
						"JOINTS_0":2,
						"WEIGHTS_0":3
					},
					"indices":4,
					"material":0
				}
			]
		},
		{
			"name":"group_0_2829873mesh",
			"primitives":[
				{
					"attributes":{
						"POSITION":6,
						"NORMAL":7,
						"JOINTS_0":8,
						"WEIGHTS_0":9
					},
					"indices":10,
					"material":1
				}
			]
		},
		{
			"name":"group_0_8273816mesh",
			"primitives":[
				{
					"attributes":{
						"POSITION":11,
						"NORMAL":12,
						"JOINTS_0":13,
						"WEIGHTS_0":14
					},
					"indices":15,
					"material":2
				}
			]
		},
		{
			"name":"group_1_16448250mesh",
			"primitives":[
				{
					"attributes":{
						"POSITION":16,
						"NORMAL":17,
						"JOINTS_0":18,
						"WEIGHTS_0":19
					},
					"indices":20,
					"material":0
				}
			]
		},
		{
			"name":"group_2_16448250mesh",
			"primitives":[
				{
					"attributes":{
						"POSITION":21,
						"NORMAL":22,
						"JOINTS_0":23,
						"WEIGHTS_0":24
					},
					"indices":20,
					"material":0
				}
			]
		}
	],
	"skins":[
		{
			"inverseBindMatrices":5,
			"joints":[
				35,
				24,
				23,
				22,
				5,
				4,
				3,
				13,
				12,
				11,
				10,
				9,
				8,
				7,
				6,
				21,
				20,
				19,
				18,
				17,
				16,
				15,
				14,
				29,
				28,
				27,
				26,
				25,
				34,
				33,
				32,
				31,
				30
			],
			"name":"Armature"
		}
	],
	"accessors":[
		{
			"bufferView":0,
			"componentType":5126,
			"count":1592,
			"max":[
				0.2800000011920929,
				0.41433006525039673,
				1.077109932899475
			],
			"min":[
				0.14653800427913666,
				0.0957050770521164,
				0.9650119543075562
			],
			"type":"VEC3"
		},
		{
			"bufferView":1,
			"componentType":5126,
			"count":1592,
			"type":"VEC3"
		},
		{
			"bufferView":2,
			"componentType":5121,
			"count":1592,
			"type":"VEC4"
		},
		{
			"bufferView":3,
			"componentType":5126,
			"count":1592,
			"type":"VEC4"
		},
		{
			"bufferView":4,
			"componentType":5123,
			"count":7032,
			"type":"SCALAR"
		},
		{
			"bufferView":5,
			"componentType":5126,
			"count":33,
			"type":"MAT4"
		},
		{
			"bufferView":6,
			"componentType":5126,
			"count":832,
			"max":[
				0.2800000011920929,
				0.3807390630245209,
				1.0681220293045044
			],
			"min":[
				0.2387619912624359,
				0.1487770676612854,
				1.0388050079345703
			],
			"type":"VEC3"
		},
		{
			"bufferView":7,
			"componentType":5126,
			"count":832,
			"type":"VEC3"
		},
		{
			"bufferView":8,
			"componentType":5121,
			"count":832,
			"type":"VEC4"
		},
		{
			"bufferView":9,
			"componentType":5126,
			"count":832,
			"type":"VEC4"
		},
		{
			"bufferView":10,
			"componentType":5123,
			"count":3633,
			"type":"SCALAR"
		},
		{
			"bufferView":11,
			"componentType":5126,
			"count":1943,
			"max":[
				0.25999999046325684,
				0.7000000476837158,
				1.1799999475479126
			],
			"min":[
				-0.20999999344348907,
				-0.2399999499320984,
				-1.0561407748355123e-08
			],
			"type":"VEC3"
		},
		{
			"bufferView":12,
			"componentType":5126,
			"count":1943,
			"type":"VEC3"
		},
		{
			"bufferView":13,
			"componentType":5121,
			"count":1943,
			"type":"VEC4"
		},
		{
			"bufferView":14,
			"componentType":5126,
			"count":1943,
			"type":"VEC4"
		},
		{
			"bufferView":15,
			"componentType":5123,
			"count":10485,
			"type":"SCALAR"
		},
		{
			"bufferView":16,
			"componentType":5126,
			"count":48,
			"max":[
				0.23999999463558197,
				0.3200000524520874,
				0.9199999570846558
			],
			"min":[
				0.17139999568462372,
				0.1600000560283661,
				0.8700000047683716
			],
			"type":"VEC3"
		},
		{
			"bufferView":17,
			"componentType":5126,
			"count":48,
			"type":"VEC3"
		},
		{
			"bufferView":18,
			"componentType":5121,
			"count":48,
			"type":"VEC4"
		},
		{
			"bufferView":19,
			"componentType":5126,
			"count":48,
			"type":"VEC4"
		},
		{
			"bufferView":20,
			"componentType":5123,
			"count":216,
			"type":"SCALAR"
		},
		{
			"bufferView":21,
			"componentType":5126,
			"count":48,
			"max":[
				0.19999998807907104,
				0.33000004291534424,
				0.8399999737739563
			],
			"min":[
				0.131400004029274,
				0.17000006139278412,
				0.7899999618530273
			],
			"type":"VEC3"
		},
		{
			"bufferView":22,
			"componentType":5126,
			"count":48,
			"type":"VEC3"
		},
		{
			"bufferView":23,
			"componentType":5121,
			"count":48,
			"type":"VEC4"
		},
		{
			"bufferView":24,
			"componentType":5126,
			"count":48,
			"type":"VEC4"
		},
		{
			"bufferView":25,
			"componentType":5126,
			"count":163,
			"max":[
				5.433333333333334
			],
			"min":[
				0.03333333333333333
			],
			"type":"SCALAR"
		},
		{
			"bufferView":26,
			"componentType":5126,
			"count":163,
			"type":"VEC3"
		},
		{
			"bufferView":27,
			"componentType":5126,
			"count":163,
			"type":"VEC4"
		},
		{
			"bufferView":28,
			"componentType":5126,
			"count":2,
			"max":[
				5.433333333333334
			],
			"min":[
				0.03333333333333333
			],
			"type":"SCALAR"
		},
		{
			"bufferView":29,
			"componentType":5126,
			"count":2,
			"type":"VEC3"
		},
		{
			"bufferView":30,
			"componentType":5126,
			"count":2,
			"type":"VEC3"
		},
		{
			"bufferView":31,
			"componentType":5126,
			"count":163,
			"type":"VEC4"
		},
		{
			"bufferView":32,
			"componentType":5126,
			"count":2,
			"type":"VEC3"
		},
		{
			"bufferView":33,
			"componentType":5126,
			"count":2,
			"type":"VEC3"
		},
		{
			"bufferView":34,
			"componentType":5126,
			"count":163,
			"type":"VEC4"
		},
		{
			"bufferView":35,
			"componentType":5126,
			"count":2,
			"type":"VEC3"
		},
		{
			"bufferView":36,
			"componentType":5126,
			"count":2,
			"type":"VEC3"
		},
		{
			"bufferView":37,
			"componentType":5126,
			"count":163,
			"type":"VEC4"
		},
		{
			"bufferView":38,
			"componentType":5126,
			"count":2,
			"type":"VEC3"
		},
		{
			"bufferView":39,
			"componentType":5126,
			"count":2,
			"type":"VEC3"
		},
		{
			"bufferView":40,
			"componentType":5126,
			"count":163,
			"type":"VEC4"
		},
		{
			"bufferView":41,
			"componentType":5126,
			"count":2,
			"type":"VEC3"
		},
		{
			"bufferView":42,
			"componentType":5126,
			"count":2,
			"type":"VEC3"
		},
		{
			"bufferView":43,
			"componentType":5126,
			"count":163,
			"type":"VEC4"
		},
		{
			"bufferView":44,
			"componentType":5126,
			"count":2,
			"type":"VEC3"
		},
		{
			"bufferView":45,
			"componentType":5126,
			"count":2,
			"type":"VEC3"
		},
		{
			"bufferView":46,
			"componentType":5126,
			"count":2,
			"type":"VEC4"
		},
		{
			"bufferView":47,
			"componentType":5126,
			"count":2,
			"type":"VEC3"
		},
		{
			"bufferView":48,
			"componentType":5126,
			"count":2,
			"type":"VEC3"
		},
		{
			"bufferView":49,
			"componentType":5126,
			"count":163,
			"type":"VEC4"
		},
		{
			"bufferView":50,
			"componentType":5126,
			"count":2,
			"type":"VEC3"
		},
		{
			"bufferView":51,
			"componentType":5126,
			"count":2,
			"type":"VEC3"
		},
		{
			"bufferView":52,
			"componentType":5126,
			"count":163,
			"type":"VEC4"
		},
		{
			"bufferView":53,
			"componentType":5126,
			"count":2,
			"type":"VEC3"
		},
		{
			"bufferView":54,
			"componentType":5126,
			"count":2,
			"type":"VEC3"
		},
		{
			"bufferView":55,
			"componentType":5126,
			"count":163,
			"type":"VEC4"
		},
		{
			"bufferView":56,
			"componentType":5126,
			"count":2,
			"type":"VEC3"
		},
		{
			"bufferView":57,
			"componentType":5126,
			"count":2,
			"type":"VEC3"
		},
		{
			"bufferView":58,
			"componentType":5126,
			"count":2,
			"type":"VEC4"
		},
		{
			"bufferView":59,
			"componentType":5126,
			"count":2,
			"type":"VEC3"
		},
		{
			"bufferView":60,
			"componentType":5126,
			"count":2,
			"type":"VEC3"
		},
		{
			"bufferView":61,
			"componentType":5126,
			"count":163,
			"type":"VEC4"
		},
		{
			"bufferView":62,
			"componentType":5126,
			"count":2,
			"type":"VEC3"
		},
		{
			"bufferView":63,
			"componentType":5126,
			"count":2,
			"type":"VEC3"
		},
		{
			"bufferView":64,
			"componentType":5126,
			"count":163,
			"type":"VEC4"
		},
		{
			"bufferView":65,
			"componentType":5126,
			"count":2,
			"type":"VEC3"
		},
		{
			"bufferView":66,
			"componentType":5126,
			"count":2,
			"type":"VEC3"
		},
		{
			"bufferView":67,
			"componentType":5126,
			"count":163,
			"type":"VEC4"
		},
		{
			"bufferView":68,
			"componentType":5126,
			"count":2,
			"type":"VEC3"
		},
		{
			"bufferView":69,
			"componentType":5126,
			"count":2,
			"type":"VEC3"
		},
		{
			"bufferView":70,
			"componentType":5126,
			"count":2,
			"type":"VEC4"
		},
		{
			"bufferView":71,
			"componentType":5126,
			"count":2,
			"type":"VEC3"
		},
		{
			"bufferView":72,
			"componentType":5126,
			"count":2,
			"type":"VEC3"
		},
		{
			"bufferView":73,
			"componentType":5126,
			"count":163,
			"type":"VEC4"
		},
		{
			"bufferView":74,
			"componentType":5126,
			"count":2,
			"type":"VEC3"
		},
		{
			"bufferView":75,
			"componentType":5126,
			"count":2,
			"type":"VEC3"
		},
		{
			"bufferView":76,
			"componentType":5126,
			"count":163,
			"type":"VEC4"
		},
		{
			"bufferView":77,
			"componentType":5126,
			"count":2,
			"type":"VEC3"
		},
		{
			"bufferView":78,
			"componentType":5126,
			"count":2,
			"type":"VEC3"
		},
		{
			"bufferView":79,
			"componentType":5126,
			"count":163,
			"type":"VEC4"
		},
		{
			"bufferView":80,
			"componentType":5126,
			"count":2,
			"type":"VEC3"
		},
		{
			"bufferView":81,
			"componentType":5126,
			"count":2,
			"type":"VEC3"
		},
		{
			"bufferView":82,
			"componentType":5126,
			"count":163,
			"type":"VEC4"
		},
		{
			"bufferView":83,
			"componentType":5126,
			"count":2,
			"type":"VEC3"
		},
		{
			"bufferView":84,
			"componentType":5126,
			"count":2,
			"type":"VEC3"
		},
		{
			"bufferView":85,
			"componentType":5126,
			"count":163,
			"type":"VEC4"
		},
		{
			"bufferView":86,
			"componentType":5126,
			"count":2,
			"type":"VEC3"
		},
		{
			"bufferView":87,
			"componentType":5126,
			"count":2,
			"type":"VEC3"
		},
		{
			"bufferView":88,
			"componentType":5126,
			"count":163,
			"type":"VEC4"
		},
		{
			"bufferView":89,
			"componentType":5126,
			"count":2,
			"type":"VEC3"
		},
		{
			"bufferView":90,
			"componentType":5126,
			"count":2,
			"type":"VEC3"
		},
		{
			"bufferView":91,
			"componentType":5126,
			"count":163,
			"type":"VEC4"
		},
		{
			"bufferView":92,
			"componentType":5126,
			"count":2,
			"type":"VEC3"
		},
		{
			"bufferView":93,
			"componentType":5126,
			"count":2,
			"type":"VEC3"
		},
		{
			"bufferView":94,
			"componentType":5126,
			"count":2,
			"type":"VEC4"
		},
		{
			"bufferView":95,
			"componentType":5126,
			"count":2,
			"type":"VEC3"
		},
		{
			"bufferView":96,
			"componentType":5126,
			"count":2,
			"type":"VEC3"
		},
		{
			"bufferView":97,
			"componentType":5126,
			"count":163,
			"type":"VEC4"
		},
		{
			"bufferView":98,
			"componentType":5126,
			"count":2,
			"type":"VEC3"
		},
		{
			"bufferView":99,
			"componentType":5126,
			"count":2,
			"type":"VEC3"
		},
		{
			"bufferView":100,
			"componentType":5126,
			"count":163,
			"type":"VEC4"
		},
		{
			"bufferView":101,
			"componentType":5126,
			"count":2,
			"type":"VEC3"
		},
		{
			"bufferView":102,
			"componentType":5126,
			"count":2,
			"type":"VEC3"
		},
		{
			"bufferView":103,
			"componentType":5126,
			"count":163,
			"type":"VEC4"
		},
		{
			"bufferView":104,
			"componentType":5126,
			"count":2,
			"type":"VEC3"
		},
		{
			"bufferView":105,
			"componentType":5126,
			"count":2,
			"type":"VEC3"
		},
		{
			"bufferView":106,
			"componentType":5126,
			"count":163,
			"type":"VEC4"
		},
		{
			"bufferView":107,
			"componentType":5126,
			"count":2,
			"type":"VEC3"
		},
		{
			"bufferView":108,
			"componentType":5126,
			"count":2,
			"type":"VEC3"
		},
		{
			"bufferView":109,
			"componentType":5126,
			"count":2,
			"type":"VEC4"
		},
		{
			"bufferView":110,
			"componentType":5126,
			"count":2,
			"type":"VEC3"
		},
		{
			"bufferView":111,
			"componentType":5126,
			"count":2,
			"type":"VEC3"
		},
		{
			"bufferView":112,
			"componentType":5126,
			"count":163,
			"type":"VEC4"
		},
		{
			"bufferView":113,
			"componentType":5126,
			"count":2,
			"type":"VEC3"
		},
		{
			"bufferView":114,
			"componentType":5126,
			"count":2,
			"type":"VEC3"
		},
		{
			"bufferView":115,
			"componentType":5126,
			"count":163,
			"type":"VEC4"
		},
		{
			"bufferView":116,
			"componentType":5126,
			"count":2,
			"type":"VEC3"
		},
		{
			"bufferView":117,
			"componentType":5126,
			"count":2,
			"type":"VEC3"
		},
		{
			"bufferView":118,
			"componentType":5126,
			"count":163,
			"type":"VEC4"
		},
		{
			"bufferView":119,
			"componentType":5126,
			"count":2,
			"type":"VEC3"
		},
		{
			"bufferView":120,
			"componentType":5126,
			"count":2,
			"type":"VEC3"
		},
		{
			"bufferView":121,
			"componentType":5126,
			"count":163,
			"type":"VEC4"
		},
		{
			"bufferView":122,
			"componentType":5126,
			"count":2,
			"type":"VEC3"
		},
		{
			"bufferView":123,
			"componentType":5126,
			"count":2,
			"type":"VEC3"
		},
		{
			"bufferView":124,
			"componentType":5126,
			"count":2,
			"type":"VEC4"
		},
		{
			"bufferView":125,
			"componentType":5126,
			"count":2,
			"type":"VEC3"
		}
	],
	"bufferViews":[
		{
			"buffer":0,
			"byteLength":19104,
			"byteOffset":0,
			"target":34962
		},
		{
			"buffer":0,
			"byteLength":19104,
			"byteOffset":19104,
			"target":34962
		},
		{
			"buffer":0,
			"byteLength":6368,
			"byteOffset":38208,
			"target":34962
		},
		{
			"buffer":0,
			"byteLength":25472,
			"byteOffset":44576,
			"target":34962
		},
		{
			"buffer":0,
			"byteLength":14064,
			"byteOffset":70048,
			"target":34963
		},
		{
			"buffer":0,
			"byteLength":2112,
			"byteOffset":84112
		},
		{
			"buffer":0,
			"byteLength":9984,
			"byteOffset":86224,
			"target":34962
		},
		{
			"buffer":0,
			"byteLength":9984,
			"byteOffset":96208,
			"target":34962
		},
		{
			"buffer":0,
			"byteLength":3328,
			"byteOffset":106192,
			"target":34962
		},
		{
			"buffer":0,
			"byteLength":13312,
			"byteOffset":109520,
			"target":34962
		},
		{
			"buffer":0,
			"byteLength":7266,
			"byteOffset":122832,
			"target":34963
		},
		{
			"buffer":0,
			"byteLength":23316,
			"byteOffset":130100,
			"target":34962
		},
		{
			"buffer":0,
			"byteLength":23316,
			"byteOffset":153416,
			"target":34962
		},
		{
			"buffer":0,
			"byteLength":7772,
			"byteOffset":176732,
			"target":34962
		},
		{
			"buffer":0,
			"byteLength":31088,
			"byteOffset":184504,
			"target":34962
		},
		{
			"buffer":0,
			"byteLength":20970,
			"byteOffset":215592,
			"target":34963
		},
		{
			"buffer":0,
			"byteLength":576,
			"byteOffset":236564,
			"target":34962
		},
		{
			"buffer":0,
			"byteLength":576,
			"byteOffset":237140,
			"target":34962
		},
		{
			"buffer":0,
			"byteLength":192,
			"byteOffset":237716,
			"target":34962
		},
		{
			"buffer":0,
			"byteLength":768,
			"byteOffset":237908,
			"target":34962
		},
		{
			"buffer":0,
			"byteLength":432,
			"byteOffset":238676,
			"target":34963
		},
		{
			"buffer":0,
			"byteLength":576,
			"byteOffset":239108,
			"target":34962
		},
		{
			"buffer":0,
			"byteLength":576,
			"byteOffset":239684,
			"target":34962
		},
		{
			"buffer":0,
			"byteLength":192,
			"byteOffset":240260,
			"target":34962
		},
		{
			"buffer":0,
			"byteLength":768,
			"byteOffset":240452,
			"target":34962
		},
		{
			"buffer":0,
			"byteLength":652,
			"byteOffset":241220
		},
		{
			"buffer":0,
			"byteLength":1956,
			"byteOffset":241872
		},
		{
			"buffer":0,
			"byteLength":2608,
			"byteOffset":243828
		},
		{
			"buffer":0,
			"byteLength":8,
			"byteOffset":246436
		},
		{
			"buffer":0,
			"byteLength":24,
			"byteOffset":246444
		},
		{
			"buffer":0,
			"byteLength":24,
			"byteOffset":246468
		},
		{
			"buffer":0,
			"byteLength":2608,
			"byteOffset":246492
		},
		{
			"buffer":0,
			"byteLength":24,
			"byteOffset":249100
		},
		{
			"buffer":0,
			"byteLength":24,
			"byteOffset":249124
		},
		{
			"buffer":0,
			"byteLength":2608,
			"byteOffset":249148
		},
		{
			"buffer":0,
			"byteLength":24,
			"byteOffset":251756
		},
		{
			"buffer":0,
			"byteLength":24,
			"byteOffset":251780
		},
		{
			"buffer":0,
			"byteLength":2608,
			"byteOffset":251804
		},
		{
			"buffer":0,
			"byteLength":24,
			"byteOffset":254412
		},
		{
			"buffer":0,
			"byteLength":24,
			"byteOffset":254436
		},
		{
			"buffer":0,
			"byteLength":2608,
			"byteOffset":254460
		},
		{
			"buffer":0,
			"byteLength":24,
			"byteOffset":257068
		},
		{
			"buffer":0,
			"byteLength":24,
			"byteOffset":257092
		},
		{
			"buffer":0,
			"byteLength":2608,
			"byteOffset":257116
		},
		{
			"buffer":0,
			"byteLength":24,
			"byteOffset":259724
		},
		{
			"buffer":0,
			"byteLength":24,
			"byteOffset":259748
		},
		{
			"buffer":0,
			"byteLength":32,
			"byteOffset":259772
		},
		{
			"buffer":0,
			"byteLength":24,
			"byteOffset":259804
		},
		{
			"buffer":0,
			"byteLength":24,
			"byteOffset":259828
		},
		{
			"buffer":0,
			"byteLength":2608,
			"byteOffset":259852
		},
		{
			"buffer":0,
			"byteLength":24,
			"byteOffset":262460
		},
		{
			"buffer":0,
			"byteLength":24,
			"byteOffset":262484
		},
		{
			"buffer":0,
			"byteLength":2608,
			"byteOffset":262508
		},
		{
			"buffer":0,
			"byteLength":24,
			"byteOffset":265116
		},
		{
			"buffer":0,
			"byteLength":24,
			"byteOffset":265140
		},
		{
			"buffer":0,
			"byteLength":2608,
			"byteOffset":265164
		},
		{
			"buffer":0,
			"byteLength":24,
			"byteOffset":267772
		},
		{
			"buffer":0,
			"byteLength":24,
			"byteOffset":267796
		},
		{
			"buffer":0,
			"byteLength":32,
			"byteOffset":267820
		},
		{
			"buffer":0,
			"byteLength":24,
			"byteOffset":267852
		},
		{
			"buffer":0,
			"byteLength":24,
			"byteOffset":267876
		},
		{
			"buffer":0,
			"byteLength":2608,
			"byteOffset":267900
		},
		{
			"buffer":0,
			"byteLength":24,
			"byteOffset":270508
		},
		{
			"buffer":0,
			"byteLength":24,
			"byteOffset":270532
		},
		{
			"buffer":0,
			"byteLength":2608,
			"byteOffset":270556
		},
		{
			"buffer":0,
			"byteLength":24,
			"byteOffset":273164
		},
		{
			"buffer":0,
			"byteLength":24,
			"byteOffset":273188
		},
		{
			"buffer":0,
			"byteLength":2608,
			"byteOffset":273212
		},
		{
			"buffer":0,
			"byteLength":24,
			"byteOffset":275820
		},
		{
			"buffer":0,
			"byteLength":24,
			"byteOffset":275844
		},
		{
			"buffer":0,
			"byteLength":32,
			"byteOffset":275868
		},
		{
			"buffer":0,
			"byteLength":24,
			"byteOffset":275900
		},
		{
			"buffer":0,
			"byteLength":24,
			"byteOffset":275924
		},
		{
			"buffer":0,
			"byteLength":2608,
			"byteOffset":275948
		},
		{
			"buffer":0,
			"byteLength":24,
			"byteOffset":278556
		},
		{
			"buffer":0,
			"byteLength":24,
			"byteOffset":278580
		},
		{
			"buffer":0,
			"byteLength":2608,
			"byteOffset":278604
		},
		{
			"buffer":0,
			"byteLength":24,
			"byteOffset":281212
		},
		{
			"buffer":0,
			"byteLength":24,
			"byteOffset":281236
		},
		{
			"buffer":0,
			"byteLength":2608,
			"byteOffset":281260
		},
		{
			"buffer":0,
			"byteLength":24,
			"byteOffset":283868
		},
		{
			"buffer":0,
			"byteLength":24,
			"byteOffset":283892
		},
		{
			"buffer":0,
			"byteLength":2608,
			"byteOffset":283916
		},
		{
			"buffer":0,
			"byteLength":24,
			"byteOffset":286524
		},
		{
			"buffer":0,
			"byteLength":24,
			"byteOffset":286548
		},
		{
			"buffer":0,
			"byteLength":2608,
			"byteOffset":286572
		},
		{
			"buffer":0,
			"byteLength":24,
			"byteOffset":289180
		},
		{
			"buffer":0,
			"byteLength":24,
			"byteOffset":289204
		},
		{
			"buffer":0,
			"byteLength":2608,
			"byteOffset":289228
		},
		{
			"buffer":0,
			"byteLength":24,
			"byteOffset":291836
		},
		{
			"buffer":0,
			"byteLength":24,
			"byteOffset":291860
		},
		{
			"buffer":0,
			"byteLength":2608,
			"byteOffset":291884
		},
		{
			"buffer":0,
			"byteLength":24,
			"byteOffset":294492
		},
		{
			"buffer":0,
			"byteLength":24,
			"byteOffset":294516
		},
		{
			"buffer":0,
			"byteLength":32,
			"byteOffset":294540
		},
		{
			"buffer":0,
			"byteLength":24,
			"byteOffset":294572
		},
		{
			"buffer":0,
			"byteLength":24,
			"byteOffset":294596
		},
		{
			"buffer":0,
			"byteLength":2608,
			"byteOffset":294620
		},
		{
			"buffer":0,
			"byteLength":24,
			"byteOffset":297228
		},
		{
			"buffer":0,
			"byteLength":24,
			"byteOffset":297252
		},
		{
			"buffer":0,
			"byteLength":2608,
			"byteOffset":297276
		},
		{
			"buffer":0,
			"byteLength":24,
			"byteOffset":299884
		},
		{
			"buffer":0,
			"byteLength":24,
			"byteOffset":299908
		},
		{
			"buffer":0,
			"byteLength":2608,
			"byteOffset":299932
		},
		{
			"buffer":0,
			"byteLength":24,
			"byteOffset":302540
		},
		{
			"buffer":0,
			"byteLength":24,
			"byteOffset":302564
		},
		{
			"buffer":0,
			"byteLength":2608,
			"byteOffset":302588
		},
		{
			"buffer":0,
			"byteLength":24,
			"byteOffset":305196
		},
		{
			"buffer":0,
			"byteLength":24,
			"byteOffset":305220
		},
		{
			"buffer":0,
			"byteLength":32,
			"byteOffset":305244
		},
		{
			"buffer":0,
			"byteLength":24,
			"byteOffset":305276
		},
		{
			"buffer":0,
			"byteLength":24,
			"byteOffset":305300
		},
		{
			"buffer":0,
			"byteLength":2608,
			"byteOffset":305324
		},
		{
			"buffer":0,
			"byteLength":24,
			"byteOffset":307932
		},
		{
			"buffer":0,
			"byteLength":24,
			"byteOffset":307956
		},
		{
			"buffer":0,
			"byteLength":2608,
			"byteOffset":307980
		},
		{
			"buffer":0,
			"byteLength":24,
			"byteOffset":310588
		},
		{
			"buffer":0,
			"byteLength":24,
			"byteOffset":310612
		},
		{
			"buffer":0,
			"byteLength":2608,
			"byteOffset":310636
		},
		{
			"buffer":0,
			"byteLength":24,
			"byteOffset":313244
		},
		{
			"buffer":0,
			"byteLength":24,
			"byteOffset":313268
		},
		{
			"buffer":0,
			"byteLength":2608,
			"byteOffset":313292
		},
		{
			"buffer":0,
			"byteLength":24,
			"byteOffset":315900
		},
		{
			"buffer":0,
			"byteLength":24,
			"byteOffset":315924
		},
		{
			"buffer":0,
			"byteLength":32,
			"byteOffset":315948
		},
		{
			"buffer":0,
			"byteLength":24,
			"byteOffset":315980
		}
	],
	"buffers":[
		{
			"byteLength":316004,
			"uri":"model.bin"
		}
	]
}
